{
	"asset":{
		"generator":"Khronos glTF Blender I/O v3.6.28",
		"version":"2.0"
	},
	"scene":0,
	"scenes":[
		{
			"name":"Scene",
			"nodes":[
				0
			]
		}
	],
	"nodes":[
		{
			"mesh":0,
			"name":"Suzanne.003"
		}
	],
	"animations":[
		{
			"channels":[
				{
					"sampler":0,
					"target":{
						"node":0,
						"path":"weights"
					}
				}
			],
			"name":"Shape animation",
			"samplers":[
				{
					"input":10,
					"interpolation":"LINEAR",
					"output":11
				}
			]
		}
	],
	"meshes":[
		{
			"extras":{
				"targetNames":[
					"Eyes",
					"Mouthe",
					"Smile"
				]
			},
			"name":"Suzanne.003",
			"primitives":[
				{
					"attributes":{
						"POSITION":0,
						"NORMAL":1,
						"TEXCOORD_0":2
					},
					"indices":3,
					"targets":[
						{
							"POSITION":4,
							"NORMAL":5
						},
						{
							"POSITION":6,
							"NORMAL":7
						},
						{
							"POSITION":8,
							"NORMAL":9
						}
					]
				}
			],
			"weights":[
				0,
				0,
				0
			]
		}
	],
	"accessors":[
		{
			"bufferView":0,
			"componentType":5126,
			"count":556,
			"max":[
				1.3671875,
				0.984375,
				0.8515625
			],
			"min":[
				-1.3671875,
				-0.984375,
				-0.8515625
			],
			"type":"VEC3"
		},
		{
			"bufferView":1,
			"componentType":5126,
			"count":556,
			"type":"VEC3"
		},
		{
			"bufferView":2,
			"componentType":5126,
			"count":556,
			"type":"VEC2"
		},
		{
			"bufferView":3,
			"componentType":5123,
			"count":2904,
			"type":"SCALAR"
		},
		{
			"bufferView":4,
			"componentType":5126,
			"count":556,
			"max":[
				0.06222635507583618,
				0.04811875522136688,
				0.0842103362083435
			],
			"min":[
				-0.06218993663787842,
				-0.29866084456443787,
				-0.025121212005615234
			],
			"type":"VEC3"
		},
		{
			"bufferView":5,
			"componentType":5126,
			"count":556,
			"type":"VEC3"
		},
		{
			"bufferView":6,
			"componentType":5126,
			"count":556,
			"max":[
				0.008387744426727295,
				0.055369019508361816,
				0.022594749927520752
			],
			"min":[
				-0.008387744426727295,
				-0.06159162521362305,
				-0.025509297847747803
			],
			"type":"VEC3"
		},
		{
			"bufferView":7,
			"componentType":5126,
			"count":556,
			"type":"VEC3"
		},
		{
			"bufferView":8,
			"componentType":5126,
			"count":556,
			"max":[
				0.12894856929779053,
				0.08127230405807495,
				0.0026090145111083984
			],
			"min":[
				-0.12894856929779053,
				0,
				-1.4841556549072266e-05
			],
			"type":"VEC3"
		},
		{
			"bufferView":9,
			"componentType":5126,
			"count":556,
			"type":"VEC3"
		},
		{
			"bufferView":10,
			"componentType":5126,
			"count":41,
			"max":[
				0.6666666666666666
			],
			"min":[
				0
			],
			"type":"SCALAR"
		},
		{
			"bufferView":11,
			"componentType":5126,
			"count":123,
			"type":"SCALAR"
		}
	],
	"bufferViews":[
		{
			"buffer":0,
			"byteLength":6672,
			"byteOffset":0,
			"target":34962
		},
		{
			"buffer":0,
			"byteLength":6672,
			"byteOffset":6672,
			"target":34962
		},
		{
			"buffer":0,
			"byteLength":4448,
			"byteOffset":13344,
			"target":34962
		},
		{
			"buffer":0,
			"byteLength":5808,
			"byteOffset":17792,
			"target":34963
		},
		{
			"buffer":0,
			"byteLength":6672,
			"byteOffset":23600,
			"target":34962
		},
		{
			"buffer":0,
			"byteLength":6672,
			"byteOffset":30272,
			"target":34962
		},
		{
			"buffer":0,
			"byteLength":6672,
			"byteOffset":36944,
			"target":34962
		},
		{
			"buffer":0,
			"byteLength":6672,
			"byteOffset":43616,
			"target":34962
		},
		{
			"buffer":0,
			"byteLength":6672,
			"byteOffset":50288,
			"target":34962
		},
		{
			"buffer":0,
			"byteLength":6672,
			"byteOffset":56960,
			"target":34962
		},
		{
			"buffer":0,
			"byteLength":164,
			"byteOffset":63632
		},
		{
			"buffer":0,
			"byteLength":492,
			"byteOffset":63796
		}
	],
	"buffers":[
		{
			"byteLength":64288,
			"uri":"data:application/octet-stream;base64,"
		}
	]
}
