{
	"asset":{
		"generator":"Khronos glTF Blender I/O v3.6.28",
		"version":"2.0"
	},
	"scene":0,
	"scenes":[
		{
			"name":"Scene",
			"nodes":[
				0
			]
		}
	],
	"nodes":[
		{
			"mesh":0,
			"name":"Suzanne"
		}
	],
	"materials":[
		{
			"doubleSided":true,
			"name":"Metal04 PBR",
			"pbrMetallicRoughness":{}
		},
		{
			"doubleSided":true,
			"name":"Tiles04 PBR",
			"pbrMetallicRoughness":{}
		}
	],
	"meshes":[
		{
			"name":"Suzanne",
			"primitives":[
				{
					"attributes":{
						"POSITION":0,
						"NORMAL":1,
						"TEXCOORD_0":2,
						"TEXCOORD_1":3
					},
					"indices":4,
					"material":0
				},
				{
					"attributes":{
						"POSITION":5,
						"NORMAL":6,
						"TEXCOORD_0":7,
						"TEXCOORD_1":8
					},
					"indices":9,
					"material":1
				}
			]
		}
	],
	"accessors":[
		{
			"bufferView":0,
			"componentType":5126,
			"count":912,
			"max":[
				1.3671875,
				0.984375,
				0.8515625
			],
			"min":[
				-1.3125,
				-0.984375,
				-0.8515625
			],
			"type":"VEC3"
		},
		{
			"bufferView":1,
			"componentType":5126,
			"count":912,
			"type":"VEC3"
		},
		{
			"bufferView":2,
			"componentType":5126,
			"count":912,
			"type":"VEC2"
		},
		{
			"bufferView":3,
			"componentType":5126,
			"count":912,
			"type":"VEC2"
		},
		{
			"bufferView":4,
			"componentType":5123,
			"count":2523,
			"type":"SCALAR"
		},
		{
			"bufferView":5,
			"componentType":5126,
			"count":147,
			"max":[
				-0.40625,
				0.9296875,
				0.46875
			],
			"min":[
				-1.3671875,
				-0.1953125,
				-0.546875
			],
			"type":"VEC3"
		},
		{
			"bufferView":6,
			"componentType":5126,
			"count":147,
			"type":"VEC3"
		},
		{
			"bufferView":7,
			"componentType":5126,
			"count":147,
			"type":"VEC2"
		},
		{
			"bufferView":8,
			"componentType":5126,
			"count":147,
			"type":"VEC2"
		},
		{
			"bufferView":9,
			"componentType":5123,
			"count":381,
			"type":"SCALAR"
		}
	],
	"bufferViews":[
		{
			"buffer":0,
			"byteLength":10944,
			"byteOffset":0,
			"target":34962
		},
		{
			"buffer":0,
			"byteLength":10944,
			"byteOffset":10944,
			"target":34962
		},
		{
			"buffer":0,
			"byteLength":7296,
			"byteOffset":21888,
			"target":34962
		},
		{
			"buffer":0,
			"byteLength":7296,
			"byteOffset":29184,
			"target":34962
		},
		{
			"buffer":0,
			"byteLength":5046,
			"byteOffset":36480,
			"target":34963
		},
		{
			"buffer":0,
			"byteLength":1764,
			"byteOffset":41528,
			"target":34962
		},
		{
			"buffer":0,
			"byteLength":1764,
			"byteOffset":43292,
			"target":34962
		},
		{
			"buffer":0,
			"byteLength":1176,
			"byteOffset":45056,
			"target":34962
		},
		{
			"buffer":0,
			"byteLength":1176,
			"byteOffset":46232,
			"target":34962
		},
		{
			"buffer":0,
			"byteLength":762,
			"byteOffset":47408,
			"target":34963
		}
	],
	"buffers":[
		{
			"byteLength":48172,
			"uri":"data:application/octet-stream;base64,"
		}
	]
}
