{
	"asset":{
		"generator":"Khronos glTF Blender I/O v3.6.28",
		"version":"2.0"
	},
	"scene":0,
	"scenes":[
		{
			"name":"Scene",
			"nodes":[
				5
			]
		}
	],
	"nodes":[
		{
			"name":"Ear_l",
			"rotation":[
				-0.012726743705570698,
				0.2005574107170105,
				-0.4263119399547577,
				0.8819710612297058
			],
			"scale":[
				1,
				0.9999998211860657,
				1
			],
			"translation":[
				0.7222082018852234,
				0.5593510866165161,
				-0.5369167327880859
			]
		},
		{
			"name":"Ear_r",
			"rotation":[
				-0.012726821005344391,
				-0.2005576491355896,
				0.4263119697570801,
				0.881971001625061
			],
			"scale":[
				0.9999999403953552,
				1,
				1
			],
			"translation":[
				-0.7222079634666443,
				0.5593510866165161,
				-0.5369170904159546
			]
		},
		{
			"children":[
				0,
				1
			],
			"name":"head",
			"rotation":[
				-0.2019454836845398,
				1.1675317068693403e-07,
				-2.4073772308952357e-08,
				0.9793967604637146
			],
			"scale":[
				1,
				0.9999999403953552,
				1
			],
			"translation":[
				0,
				0.6127840876579285,
				0
			]
		},
		{
			"children":[
				2
			],
			"name":"Root",
			"translation":[
				0,
				-0.9385063648223877,
				0.5257605910301208
			]
		},
		{
			"mesh":0,
			"name":"Suzanne.002",
			"skin":0
		},
		{
			"children":[
				4,
				3
			],
			"name":"Suzanne_Armature"
		}
	],
	"animations":[
		{
			"channels":[
				{
					"sampler":0,
					"target":{
						"node":3,
						"path":"translation"
					}
				},
				{
					"sampler":1,
					"target":{
						"node":3,
						"path":"rotation"
					}
				},
				{
					"sampler":2,
					"target":{
						"node":3,
						"path":"scale"
					}
				},
				{
					"sampler":3,
					"target":{
						"node":2,
						"path":"translation"
					}
				},
				{
					"sampler":4,
					"target":{
						"node":2,
						"path":"rotation"
					}
				},
				{
					"sampler":5,
					"target":{
						"node":2,
						"path":"scale"
					}
				},
				{
					"sampler":6,
					"target":{
						"node":0,
						"path":"translation"
					}
				},
				{
					"sampler":7,
					"target":{
						"node":0,
						"path":"rotation"
					}
				},
				{
					"sampler":8,
					"target":{
						"node":0,
						"path":"scale"
					}
				},
				{
					"sampler":9,
					"target":{
						"node":1,
						"path":"translation"
					}
				},
				{
					"sampler":10,
					"target":{
						"node":1,
						"path":"rotation"
					}
				},
				{
					"sampler":11,
					"target":{
						"node":1,
						"path":"scale"
					}
				}
			],
			"name":"Suzanne_rig",
			"samplers":[
				{
					"input":7,
					"interpolation":"STEP",
					"output":8
				},
				{
					"input":7,
					"interpolation":"STEP",
					"output":9
				},
				{
					"input":7,
					"interpolation":"STEP",
					"output":10
				},
				{
					"input":7,
					"interpolation":"STEP",
					"output":11
				},
				{
					"input":12,
					"interpolation":"LINEAR",
					"output":13
				},
				{
					"input":7,
					"interpolation":"STEP",
					"output":14
				},
				{
					"input":7,
					"interpolation":"LINEAR",
					"output":15
				},
				{
					"input":7,
					"interpolation":"LINEAR",
					"output":16
				},
				{
					"input":7,
					"interpolation":"STEP",
					"output":17
				},
				{
					"input":7,
					"interpolation":"LINEAR",
					"output":18
				},
				{
					"input":7,
					"interpolation":"LINEAR",
					"output":19
				},
				{
					"input":7,
					"interpolation":"STEP",
					"output":20
				}
			]
		},
		{
			"channels":[
				{
					"sampler":0,
					"target":{
						"node":3,
						"path":"translation"
					}
				},
				{
					"sampler":1,
					"target":{
						"node":3,
						"path":"rotation"
					}
				},
				{
					"sampler":2,
					"target":{
						"node":3,
						"path":"scale"
					}
				},
				{
					"sampler":3,
					"target":{
						"node":2,
						"path":"translation"
					}
				},
				{
					"sampler":4,
					"target":{
						"node":2,
						"path":"rotation"
					}
				},
				{
					"sampler":5,
					"target":{
						"node":2,
						"path":"scale"
					}
				},
				{
					"sampler":6,
					"target":{
						"node":0,
						"path":"translation"
					}
				},
				{
					"sampler":7,
					"target":{
						"node":0,
						"path":"rotation"
					}
				},
				{
					"sampler":8,
					"target":{
						"node":0,
						"path":"scale"
					}
				},
				{
					"sampler":9,
					"target":{
						"node":1,
						"path":"translation"
					}
				},
				{
					"sampler":10,
					"target":{
						"node":1,
						"path":"rotation"
					}
				},
				{
					"sampler":11,
					"target":{
						"node":1,
						"path":"scale"
					}
				}
			],
			"name":"Suzanne_rig_2",
			"samplers":[
				{
					"input":7,
					"interpolation":"STEP",
					"output":21
				},
				{
					"input":7,
					"interpolation":"STEP",
					"output":22
				},
				{
					"input":7,
					"interpolation":"STEP",
					"output":23
				},
				{
					"input":7,
					"interpolation":"STEP",
					"output":24
				},
				{
					"input":12,
					"interpolation":"LINEAR",
					"output":25
				},
				{
					"input":7,
					"interpolation":"STEP",
					"output":26
				},
				{
					"input":7,
					"interpolation":"STEP",
					"output":27
				},
				{
					"input":7,
					"interpolation":"STEP",
					"output":28
				},
				{
					"input":7,
					"interpolation":"STEP",
					"output":29
				},
				{
					"input":7,
					"interpolation":"STEP",
					"output":30
				},
				{
					"input":7,
					"interpolation":"STEP",
					"output":31
				},
				{
					"input":7,
					"interpolation":"STEP",
					"output":32
				}
			]
		}
	],
	"meshes":[
		{
			"name":"Suzanne.002",
			"primitives":[
				{
					"attributes":{
						"POSITION":0,
						"NORMAL":1,
						"TEXCOORD_0":2,
						"JOINTS_0":3,
						"WEIGHTS_0":4
					},
					"indices":5
				}
			]
		}
	],
	"skins":[
		{
			"inverseBindMatrices":6,
			"joints":[
				3,
				2,
				0,
				1
			],
			"name":"Suzanne_Armature"
		}
	],
	"accessors":[
		{
			"bufferView":0,
			"componentType":5126,
			"count":556,
			"max":[
				1.3671875,
				0.984375,
				0.8515625
			],
			"min":[
				-1.3671875,
				-0.984375,
				-0.8515625
			],
			"type":"VEC3"
		},
		{
			"bufferView":1,
			"componentType":5126,
			"count":556,
			"type":"VEC3"
		},
		{
			"bufferView":2,
			"componentType":5126,
			"count":556,
			"type":"VEC2"
		},
		{
			"bufferView":3,
			"componentType":5121,
			"count":556,
			"type":"VEC4"
		},
		{
			"bufferView":4,
			"componentType":5126,
			"count":556,
			"type":"VEC4"
		},
		{
			"bufferView":5,
			"componentType":5123,
			"count":2904,
			"type":"SCALAR"
		},
		{
			"bufferView":6,
			"componentType":5126,
			"count":4,
			"type":"MAT4"
		},
		{
			"bufferView":7,
			"componentType":5126,
			"count":2,
			"max":[
				0.8333333333333334
			],
			"min":[
				0
			],
			"type":"SCALAR"
		},
		{
			"bufferView":8,
			"componentType":5126,
			"count":2,
			"type":"VEC3"
		},
		{
			"bufferView":9,
			"componentType":5126,
			"count":2,
			"type":"VEC4"
		},
		{
			"bufferView":10,
			"componentType":5126,
			"count":2,
			"type":"VEC3"
		},
		{
			"bufferView":11,
			"componentType":5126,
			"count":2,
			"type":"VEC3"
		},
		{
			"bufferView":12,
			"componentType":5126,
			"count":51,
			"max":[
				0.8333333333333334
			],
			"min":[
				0
			],
			"type":"SCALAR"
		},
		{
			"bufferView":13,
			"componentType":5126,
			"count":51,
			"type":"VEC4"
		},
		{
			"bufferView":14,
			"componentType":5126,
			"count":2,
			"type":"VEC3"
		},
		{
			"bufferView":15,
			"componentType":5126,
			"count":2,
			"type":"VEC3"
		},
		{
			"bufferView":16,
			"componentType":5126,
			"count":2,
			"type":"VEC4"
		},
		{
			"bufferView":17,
			"componentType":5126,
			"count":2,
			"type":"VEC3"
		},
		{
			"bufferView":18,
			"componentType":5126,
			"count":2,
			"type":"VEC3"
		},
		{
			"bufferView":19,
			"componentType":5126,
			"count":2,
			"type":"VEC4"
		},
		{
			"bufferView":20,
			"componentType":5126,
			"count":2,
			"type":"VEC3"
		},
		{
			"bufferView":21,
			"componentType":5126,
			"count":2,
			"type":"VEC3"
		},
		{
			"bufferView":22,
			"componentType":5126,
			"count":2,
			"type":"VEC4"
		},
		{
			"bufferView":23,
			"componentType":5126,
			"count":2,
			"type":"VEC3"
		},
		{
			"bufferView":24,
			"componentType":5126,
			"count":2,
			"type":"VEC3"
		},
		{
			"bufferView":25,
			"componentType":5126,
			"count":51,
			"type":"VEC4"
		},
		{
			"bufferView":26,
			"componentType":5126,
			"count":2,
			"type":"VEC3"
		},
		{
			"bufferView":27,
			"componentType":5126,
			"count":2,
			"type":"VEC3"
		},
		{
			"bufferView":28,
			"componentType":5126,
			"count":2,
			"type":"VEC4"
		},
		{
			"bufferView":29,
			"componentType":5126,
			"count":2,
			"type":"VEC3"
		},
		{
			"bufferView":30,
			"componentType":5126,
			"count":2,
			"type":"VEC3"
		},
		{
			"bufferView":31,
			"componentType":5126,
			"count":2,
			"type":"VEC4"
		},
		{
			"bufferView":32,
			"componentType":5126,
			"count":2,
			"type":"VEC3"
		}
	],
	"bufferViews":[
		{
			"buffer":0,
			"byteLength":6672,
			"byteOffset":0,
			"target":34962
		},
		{
			"buffer":0,
			"byteLength":6672,
			"byteOffset":6672,
			"target":34962
		},
		{
			"buffer":0,
			"byteLength":4448,
			"byteOffset":13344,
			"target":34962
		},
		{
			"buffer":0,
			"byteLength":2224,
			"byteOffset":17792,
			"target":34962
		},
		{
			"buffer":0,
			"byteLength":8896,
			"byteOffset":20016,
			"target":34962
		},
		{
			"buffer":0,
			"byteLength":5808,
			"byteOffset":28912,
			"target":34963
		},
		{
			"buffer":0,
			"byteLength":256,
			"byteOffset":34720
		},
		{
			"buffer":0,
			"byteLength":8,
			"byteOffset":34976
		},
		{
			"buffer":0,
			"byteLength":24,
			"byteOffset":34984
		},
		{
			"buffer":0,
			"byteLength":32,
			"byteOffset":35008
		},
		{
			"buffer":0,
			"byteLength":24,
			"byteOffset":35040
		},
		{
			"buffer":0,
			"byteLength":24,
			"byteOffset":35064
		},
		{
			"buffer":0,
			"byteLength":204,
			"byteOffset":35088
		},
		{
			"buffer":0,
			"byteLength":816,
			"byteOffset":35292
		},
		{
			"buffer":0,
			"byteLength":24,
			"byteOffset":36108
		},
		{
			"buffer":0,
			"byteLength":24,
			"byteOffset":36132
		},
		{
			"buffer":0,
			"byteLength":32,
			"byteOffset":36156
		},
		{
			"buffer":0,
			"byteLength":24,
			"byteOffset":36188
		},
		{
			"buffer":0,
			"byteLength":24,
			"byteOffset":36212
		},
		{
			"buffer":0,
			"byteLength":32,
			"byteOffset":36236
		},
		{
			"buffer":0,
			"byteLength":24,
			"byteOffset":36268
		},
		{
			"buffer":0,
			"byteLength":24,
			"byteOffset":36292
		},
		{
			"buffer":0,
			"byteLength":32,
			"byteOffset":36316
		},
		{
			"buffer":0,
			"byteLength":24,
			"byteOffset":36348
		},
		{
			"buffer":0,
			"byteLength":24,
			"byteOffset":36372
		},
		{
			"buffer":0,
			"byteLength":816,
			"byteOffset":36396
		},
		{
			"buffer":0,
			"byteLength":24,
			"byteOffset":37212
		},
		{
			"buffer":0,
			"byteLength":24,
			"byteOffset":37236
		},
		{
			"buffer":0,
			"byteLength":32,
			"byteOffset":37260
		},
		{
			"buffer":0,
			"byteLength":24,
			"byteOffset":37292
		},
		{
			"buffer":0,
			"byteLength":24,
			"byteOffset":37316
		},
		{
			"buffer":0,
			"byteLength":32,
			"byteOffset":37340
		},
		{
			"buffer":0,
			"byteLength":24,
			"byteOffset":37372
		}
	],
	"buffers":[
		{
			"byteLength":37396,
			"uri":"data:application/octet-stream;base64,"
		}
	]
}
