{
	"asset":{
		"generator":"Khronos glTF Blender I/O v3.6.28",
		"version":"2.0"
	},
	"scene":0,
	"scenes":[
		{
			"name":"Scene",
			"nodes":[
				5
			]
		}
	],
	"nodes":[
		{
			"name":"Ear_l",
			"rotation":[
				-0.012726743705570698,
				0.2005574107170105,
				-0.4263119399547577,
				0.8819710612297058
			],
			"scale":[
				1,
				0.9999998211860657,
				1
			],
			"translation":[
				0.7222082018852234,
				0.5593510866165161,
				-0.5369167327880859
			]
		},
		{
			"name":"Ear_r",
			"rotation":[
				-0.012726821005344391,
				-0.2005576491355896,
				0.4263119697570801,
				0.881971001625061
			],
			"scale":[
				0.9999999403953552,
				1,
				1
			],
			"translation":[
				-0.7222079634666443,
				0.5593510866165161,
				-0.5369170904159546
			]
		},
		{
			"children":[
				0,
				1
			],
			"name":"head",
			"rotation":[
				-0.2019454836845398,
				1.1675317068693403e-07,
				-2.4073772308952357e-08,
				0.9793967604637146
			],
			"scale":[
				1,
				0.9999999403953552,
				1
			],
			"translation":[
				0,
				0.6127840876579285,
				0
			]
		},
		{
			"children":[
				2
			],
			"name":"Root",
			"translation":[
				0,
				-0.9385063648223877,
				0.5257605910301208
			]
		},
		{
			"mesh":0,
			"name":"Suzanne.004",
			"skin":0
		},
		{
			"children":[
				4,
				3
			],
			"name":"Suzanne_Armature_2"
		}
	],
	"animations":[
		{
			"channels":[
				{
					"sampler":0,
					"target":{
						"node":3,
						"path":"translation"
					}
				},
				{
					"sampler":1,
					"target":{
						"node":3,
						"path":"rotation"
					}
				},
				{
					"sampler":2,
					"target":{
						"node":3,
						"path":"scale"
					}
				},
				{
					"sampler":3,
					"target":{
						"node":2,
						"path":"translation"
					}
				},
				{
					"sampler":4,
					"target":{
						"node":2,
						"path":"rotation"
					}
				},
				{
					"sampler":5,
					"target":{
						"node":2,
						"path":"scale"
					}
				},
				{
					"sampler":6,
					"target":{
						"node":0,
						"path":"translation"
					}
				},
				{
					"sampler":7,
					"target":{
						"node":0,
						"path":"rotation"
					}
				},
				{
					"sampler":8,
					"target":{
						"node":0,
						"path":"scale"
					}
				},
				{
					"sampler":9,
					"target":{
						"node":1,
						"path":"translation"
					}
				},
				{
					"sampler":10,
					"target":{
						"node":1,
						"path":"rotation"
					}
				},
				{
					"sampler":11,
					"target":{
						"node":1,
						"path":"scale"
					}
				}
			],
			"name":"Suzanne_rig",
			"samplers":[
				{
					"input":13,
					"interpolation":"STEP",
					"output":14
				},
				{
					"input":13,
					"interpolation":"STEP",
					"output":15
				},
				{
					"input":13,
					"interpolation":"STEP",
					"output":16
				},
				{
					"input":13,
					"interpolation":"STEP",
					"output":17
				},
				{
					"input":18,
					"interpolation":"LINEAR",
					"output":19
				},
				{
					"input":13,
					"interpolation":"STEP",
					"output":20
				},
				{
					"input":13,
					"interpolation":"LINEAR",
					"output":21
				},
				{
					"input":13,
					"interpolation":"LINEAR",
					"output":22
				},
				{
					"input":13,
					"interpolation":"STEP",
					"output":23
				},
				{
					"input":13,
					"interpolation":"LINEAR",
					"output":24
				},
				{
					"input":13,
					"interpolation":"LINEAR",
					"output":25
				},
				{
					"input":13,
					"interpolation":"STEP",
					"output":26
				}
			]
		},
		{
			"channels":[
				{
					"sampler":0,
					"target":{
						"node":3,
						"path":"translation"
					}
				},
				{
					"sampler":1,
					"target":{
						"node":3,
						"path":"rotation"
					}
				},
				{
					"sampler":2,
					"target":{
						"node":3,
						"path":"scale"
					}
				},
				{
					"sampler":3,
					"target":{
						"node":2,
						"path":"translation"
					}
				},
				{
					"sampler":4,
					"target":{
						"node":2,
						"path":"rotation"
					}
				},
				{
					"sampler":5,
					"target":{
						"node":2,
						"path":"scale"
					}
				},
				{
					"sampler":6,
					"target":{
						"node":0,
						"path":"translation"
					}
				},
				{
					"sampler":7,
					"target":{
						"node":0,
						"path":"rotation"
					}
				},
				{
					"sampler":8,
					"target":{
						"node":0,
						"path":"scale"
					}
				},
				{
					"sampler":9,
					"target":{
						"node":1,
						"path":"translation"
					}
				},
				{
					"sampler":10,
					"target":{
						"node":1,
						"path":"rotation"
					}
				},
				{
					"sampler":11,
					"target":{
						"node":1,
						"path":"scale"
					}
				}
			],
			"name":"Suzanne_rig_2",
			"samplers":[
				{
					"input":13,
					"interpolation":"STEP",
					"output":27
				},
				{
					"input":13,
					"interpolation":"STEP",
					"output":28
				},
				{
					"input":13,
					"interpolation":"STEP",
					"output":29
				},
				{
					"input":13,
					"interpolation":"STEP",
					"output":30
				},
				{
					"input":18,
					"interpolation":"LINEAR",
					"output":31
				},
				{
					"input":13,
					"interpolation":"STEP",
					"output":32
				},
				{
					"input":13,
					"interpolation":"STEP",
					"output":33
				},
				{
					"input":13,
					"interpolation":"STEP",
					"output":34
				},
				{
					"input":13,
					"interpolation":"STEP",
					"output":35
				},
				{
					"input":13,
					"interpolation":"STEP",
					"output":36
				},
				{
					"input":13,
					"interpolation":"STEP",
					"output":37
				},
				{
					"input":13,
					"interpolation":"STEP",
					"output":38
				}
			]
		},
		{
			"channels":[
				{
					"sampler":0,
					"target":{
						"node":4,
						"path":"weights"
					}
				}
			],
			"name":"Shape animation",
			"samplers":[
				{
					"input":39,
					"interpolation":"LINEAR",
					"output":40
				}
			]
		}
	],
	"meshes":[
		{
			"extras":{
				"targetNames":[
					"Smile",
					"Eyes",
					"Mouthe"
				]
			},
			"name":"Suzanne.004",
			"primitives":[
				{
					"attributes":{
						"POSITION":0,
						"NORMAL":1,
						"TEXCOORD_0":2,
						"JOINTS_0":3,
						"WEIGHTS_0":4
					},
					"indices":5,
					"targets":[
						{
							"POSITION":6,
							"NORMAL":7
						},
						{
							"POSITION":8,
							"NORMAL":9
						},
						{
							"POSITION":10,
							"NORMAL":11
						}
					]
				}
			],
			"weights":[
				0,
				0,
				0
			]
		}
	],
	"skins":[
		{
			"inverseBindMatrices":12,
			"joints":[
				3,
				2,
				0,
				1
			],
			"name":"Suzanne_Armature_2"
		}
	],
	"accessors":[
		{
			"bufferView":0,
			"componentType":5126,
			"count":556,
			"max":[
				1.3671875,
				0.984375,
				0.8515625
			],
			"min":[
				-1.3671875,
				-0.984375,
				-0.8515625
			],
			"type":"VEC3"
		},
		{
			"bufferView":1,
			"componentType":5126,
			"count":556,
			"type":"VEC3"
		},
		{
			"bufferView":2,
			"componentType":5126,
			"count":556,
			"type":"VEC2"
		},
		{
			"bufferView":3,
			"componentType":5121,
			"count":556,
			"type":"VEC4"
		},
		{
			"bufferView":4,
			"componentType":5126,
			"count":556,
			"type":"VEC4"
		},
		{
			"bufferView":5,
			"componentType":5123,
			"count":2904,
			"type":"SCALAR"
		},
		{
			"bufferView":6,
			"componentType":5126,
			"count":556,
			"max":[
				0.12894856929779053,
				0.08127230405807495,
				0.0026090145111083984
			],
			"min":[
				-0.12894856929779053,
				0,
				-1.4841556549072266e-05
			],
			"type":"VEC3"
		},
		{
			"bufferView":7,
			"componentType":5126,
			"count":556,
			"type":"VEC3"
		},
		{
			"bufferView":8,
			"componentType":5126,
			"count":556,
			"max":[
				0.06222635507583618,
				0.04811875522136688,
				0.0842103362083435
			],
			"min":[
				-0.06218993663787842,
				-0.29866084456443787,
				-0.025121212005615234
			],
			"type":"VEC3"
		},
		{
			"bufferView":9,
			"componentType":5126,
			"count":556,
			"type":"VEC3"
		},
		{
			"bufferView":10,
			"componentType":5126,
			"count":556,
			"max":[
				0.008387744426727295,
				0.055369019508361816,
				0.022594749927520752
			],
			"min":[
				-0.008387744426727295,
				-0.06159162521362305,
				-0.025509297847747803
			],
			"type":"VEC3"
		},
		{
			"bufferView":11,
			"componentType":5126,
			"count":556,
			"type":"VEC3"
		},
		{
			"bufferView":12,
			"componentType":5126,
			"count":4,
			"type":"MAT4"
		},
		{
			"bufferView":13,
			"componentType":5126,
			"count":2,
			"max":[
				0.8333333333333334
			],
			"min":[
				0
			],
			"type":"SCALAR"
		},
		{
			"bufferView":14,
			"componentType":5126,
			"count":2,
			"type":"VEC3"
		},
		{
			"bufferView":15,
			"componentType":5126,
			"count":2,
			"type":"VEC4"
		},
		{
			"bufferView":16,
			"componentType":5126,
			"count":2,
			"type":"VEC3"
		},
		{
			"bufferView":17,
			"componentType":5126,
			"count":2,
			"type":"VEC3"
		},
		{
			"bufferView":18,
			"componentType":5126,
			"count":51,
			"max":[
				0.8333333333333334
			],
			"min":[
				0
			],
			"type":"SCALAR"
		},
		{
			"bufferView":19,
			"componentType":5126,
			"count":51,
			"type":"VEC4"
		},
		{
			"bufferView":20,
			"componentType":5126,
			"count":2,
			"type":"VEC3"
		},
		{
			"bufferView":21,
			"componentType":5126,
			"count":2,
			"type":"VEC3"
		},
		{
			"bufferView":22,
			"componentType":5126,
			"count":2,
			"type":"VEC4"
		},
		{
			"bufferView":23,
			"componentType":5126,
			"count":2,
			"type":"VEC3"
		},
		{
			"bufferView":24,
			"componentType":5126,
			"count":2,
			"type":"VEC3"
		},
		{
			"bufferView":25,
			"componentType":5126,
			"count":2,
			"type":"VEC4"
		},
		{
			"bufferView":26,
			"componentType":5126,
			"count":2,
			"type":"VEC3"
		},
		{
			"bufferView":27,
			"componentType":5126,
			"count":2,
			"type":"VEC3"
		},
		{
			"bufferView":28,
			"componentType":5126,
			"count":2,
			"type":"VEC4"
		},
		{
			"bufferView":29,
			"componentType":5126,
			"count":2,
			"type":"VEC3"
		},
		{
			"bufferView":30,
			"componentType":5126,
			"count":2,
			"type":"VEC3"
		},
		{
			"bufferView":31,
			"componentType":5126,
			"count":51,
			"type":"VEC4"
		},
		{
			"bufferView":32,
			"componentType":5126,
			"count":2,
			"type":"VEC3"
		},
		{
			"bufferView":33,
			"componentType":5126,
			"count":2,
			"type":"VEC3"
		},
		{
			"bufferView":34,
			"componentType":5126,
			"count":2,
			"type":"VEC4"
		},
		{
			"bufferView":35,
			"componentType":5126,
			"count":2,
			"type":"VEC3"
		},
		{
			"bufferView":36,
			"componentType":5126,
			"count":2,
			"type":"VEC3"
		},
		{
			"bufferView":37,
			"componentType":5126,
			"count":2,
			"type":"VEC4"
		},
		{
			"bufferView":38,
			"componentType":5126,
			"count":2,
			"type":"VEC3"
		},
		{
			"bufferView":39,
			"componentType":5126,
			"count":41,
			"max":[
				0.6666666666666666
			],
			"min":[
				0
			],
			"type":"SCALAR"
		},
		{
			"bufferView":40,
			"componentType":5126,
			"count":123,
			"type":"SCALAR"
		}
	],
	"bufferViews":[
		{
			"buffer":0,
			"byteLength":6672,
			"byteOffset":0,
			"target":34962
		},
		{
			"buffer":0,
			"byteLength":6672,
			"byteOffset":6672,
			"target":34962
		},
		{
			"buffer":0,
			"byteLength":4448,
			"byteOffset":13344,
			"target":34962
		},
		{
			"buffer":0,
			"byteLength":2224,
			"byteOffset":17792,
			"target":34962
		},
		{
			"buffer":0,
			"byteLength":8896,
			"byteOffset":20016,
			"target":34962
		},
		{
			"buffer":0,
			"byteLength":5808,
			"byteOffset":28912,
			"target":34963
		},
		{
			"buffer":0,
			"byteLength":6672,
			"byteOffset":34720,
			"target":34962
		},
		{
			"buffer":0,
			"byteLength":6672,
			"byteOffset":41392,
			"target":34962
		},
		{
			"buffer":0,
			"byteLength":6672,
			"byteOffset":48064,
			"target":34962
		},
		{
			"buffer":0,
			"byteLength":6672,
			"byteOffset":54736,
			"target":34962
		},
		{
			"buffer":0,
			"byteLength":6672,
			"byteOffset":61408,
			"target":34962
		},
		{
			"buffer":0,
			"byteLength":6672,
			"byteOffset":68080,
			"target":34962
		},
		{
			"buffer":0,
			"byteLength":256,
			"byteOffset":74752
		},
		{
			"buffer":0,
			"byteLength":8,
			"byteOffset":75008
		},
		{
			"buffer":0,
			"byteLength":24,
			"byteOffset":75016
		},
		{
			"buffer":0,
			"byteLength":32,
			"byteOffset":75040
		},
		{
			"buffer":0,
			"byteLength":24,
			"byteOffset":75072
		},
		{
			"buffer":0,
			"byteLength":24,
			"byteOffset":75096
		},
		{
			"buffer":0,
			"byteLength":204,
			"byteOffset":75120
		},
		{
			"buffer":0,
			"byteLength":816,
			"byteOffset":75324
		},
		{
			"buffer":0,
			"byteLength":24,
			"byteOffset":76140
		},
		{
			"buffer":0,
			"byteLength":24,
			"byteOffset":76164
		},
		{
			"buffer":0,
			"byteLength":32,
			"byteOffset":76188
		},
		{
			"buffer":0,
			"byteLength":24,
			"byteOffset":76220
		},
		{
			"buffer":0,
			"byteLength":24,
			"byteOffset":76244
		},
		{
			"buffer":0,
			"byteLength":32,
			"byteOffset":76268
		},
		{
			"buffer":0,
			"byteLength":24,
			"byteOffset":76300
		},
		{
			"buffer":0,
			"byteLength":24,
			"byteOffset":76324
		},
		{
			"buffer":0,
			"byteLength":32,
			"byteOffset":76348
		},
		{
			"buffer":0,
			"byteLength":24,
			"byteOffset":76380
		},
		{
			"buffer":0,
			"byteLength":24,
			"byteOffset":76404
		},
		{
			"buffer":0,
			"byteLength":816,
			"byteOffset":76428
		},
		{
			"buffer":0,
			"byteLength":24,
			"byteOffset":77244
		},
		{
			"buffer":0,
			"byteLength":24,
			"byteOffset":77268
		},
		{
			"buffer":0,
			"byteLength":32,
			"byteOffset":77292
		},
		{
			"buffer":0,
			"byteLength":24,
			"byteOffset":77324
		},
		{
			"buffer":0,
			"byteLength":24,
			"byteOffset":77348
		},
		{
			"buffer":0,
			"byteLength":32,
			"byteOffset":77372
		},
		{
			"buffer":0,
			"byteLength":24,
			"byteOffset":77404
		},
		{
			"buffer":0,
			"byteLength":164,
			"byteOffset":77428
		},
		{
			"buffer":0,
			"byteLength":492,
			"byteOffset":77592
		}
	],
	"buffers":[
		{
			"byteLength":78084,
			"uri":"data:application/octet-stream;base64,"
		}
	]
}
